<?xml version="1.0" encoding="utf-8"?><!-- Uploaded to: SVG Repo, www.svgrepo.com, Generator: SVG Repo Mixer Tools -->
<svg width="800px" height="800px" viewBox="0 0 24 24" fill="none" xmlns="http://www.w3.org/2000/svg">
<path d="M10 11C9.44771 11 9 11.4477 9 12C9 12.5523 9.44771 13 10 13H14C14.5523 13 15 12.5523 15 12C15 11.4477 14.5523 11 14 11H10Z" fill="#000000"/>
<path fill-rule="evenodd" clip-rule="evenodd" d="M0 3C0 2.44772 0.447715 2 1 2H23C23.5523 2 24 2.44772 24 3V8C24 8.55228 23.5523 9 23 9H22V19C22 20.6569 20.6569 22 19 22H5C3.34315 22 2 20.6569 2 19V9H1C0.447715 9 0 8.55228 0 8V3ZM20 19V9H4V19C4 19.5523 4.44772 20 5 20H19C19.5523 20 20 19.5523 20 19ZM22 7H2V4H22V7Z" fill="#000000"/>
</svg>