<?xml version="1.0" encoding="utf-8"?><!-- Uploaded to: SVG Repo, www.svgrepo.com, Generator: SVG Repo Mixer Tools -->
<svg width="800px" height="800px" viewBox="0 0 24 24" fill="none" xmlns="http://www.w3.org/2000/svg">
<path d="M17 20C16.4477 20 16 20.4477 16 21C16 21.5523 16.4477 22 17 22H20C21.1046 22 22 21.1046 22 20V4C22 2.89543 21.1046 2 20 2H17C16.4477 2 16 2.44772 16 3C16 3.55228 16.4477 4 17 4H20V20H17Z" fill="#000000"/>
<path d="M16.7071 12.7071C16.8034 12.6108 16.876 12.4997 16.9248 12.3811C16.9729 12.2645 16.9996 12.1369 17 12.003L17 12L17 11.997C16.9992 11.7289 16.8929 11.4855 16.7204 11.3064L16.7055 11.2913L11.7071 6.29289C11.3166 5.90237 10.6834 5.90237 10.2929 6.29289C9.90237 6.68342 9.90237 7.31658 10.2929 7.70711L13.5858 11L3 11C2.44772 11 2 11.4477 2 12C2 12.5523 2.44772 13 3 13L13.5858 13L10.2929 16.2929C9.90237 16.6834 9.90237 17.3166 10.2929 17.7071C10.6834 18.0976 11.3166 18.0976 11.7071 17.7071L16.7071 12.7071Z" fill="#000000"/>
</svg>