<?xml version="1.0" encoding="utf-8"?><!-- Uploaded to: SVG Repo, www.svgrepo.com, Generator: SVG Repo Mixer Tools -->
<svg width="800px" height="800px" viewBox="0 0 24 24" fill="none" xmlns="http://www.w3.org/2000/svg">
<path d="M12 2C6.47715 2 2 6.47715 2 12C2 17.5228 6.47715 22 12 22C16.3556 22 20.0584 19.2159 21.4307 15.3332C21.6148 14.8125 21.3418 14.2412 20.8211 14.0572C20.3004 13.8731 19.7291 14.146 19.545 14.6668C18.4463 17.7753 15.4817 20 12 20C7.58172 20 4 16.4183 4 12C4 7.58172 7.58172 4 12 4C13.5516 4 14.8662 4.56117 16.1162 5.4406C16.9569 6.03212 17.7348 6.74106 18.5242 7.5H15.5C14.9477 7.5 14.5 7.94772 14.5 8.5C14.5 9.05228 14.9477 9.5 15.5 9.5H21C21.5523 9.5 22 9.05228 22 8.5V3C22 2.44772 21.5523 2 21 2C20.4477 2 20 2.44772 20 3V6.14371C19.1517 5.32583 18.2456 4.49337 17.267 3.80489C15.7949 2.76916 14.0847 2 12 2Z" fill="#000000"/>
</svg>