<?xml version="1.0" encoding="utf-8"?>
<svg viewBox="0 0 500 500" xmlns="http://www.w3.org/2000/svg" xmlns:bx="https://boxy-svg.com">
  <path d="M 437.591 60.409 L 364.106 60.805 L 344.317 60.805 L 262.28 60.805 L 242.491 60.805 L 149.059 60.805 L 129.269 60.805 L 60.006 60.805 L 60.006 130.08 L 60.006 149.873 L 60.006 235.756 L 60.006 255.549 L 60.006 348.99 L 60.006 368.783 L 60.006 438.058 L 129.666 438.058 L 149.455 438.058 L 242.492 438.058 L 262.281 438.058 L 345.143 438.058 L 364.933 438.058 L 437.197 438.058 L 437.197 368.783 L 437.593 348.99 L 437.593 255.944 L 437.593 236.152 L 437.593 149.873 L 437.593 130.08 L 437.591 60.409" style="fill: rgb(78, 78, 78);"/>
  <path d="M 420 420 L 78 420 L 78 78 L 420 78 L 420 420 Z" style="fill: rgb(236, 236, 236);" bx:origin="0.494743 0.487702"/>
  <path d="M 187.65 92.498 L 91.092 92.498 L 91.092 185.776 L 187.543 185.776 L 187.543 92.498 L 187.65 92.498 Z M 168.012 164.776 L 110.814 164.67 L 110.882 111.967 L 167.975 111.814 L 168.012 164.776 Z" style="fill: rgb(78, 78, 78);"/>
  <path d="M 188.558 201.28 L 92 201.28 L 92 294.558 L 188.451 294.558 L 188.451 201.28 L 188.558 201.28 Z M 168.92 273.558 L 111.722 273.452 L 111.79 220.749 L 168.883 220.596 L 168.92 273.558 Z" style="fill: rgb(78, 78, 78);"/>
  <path d="M 189.348 308.548 L 92.79 308.548 L 92.79 401.826 L 189.241 401.826 L 189.241 308.548 L 189.348 308.548 Z M 169.71 380.826 L 112.512 380.72 L 112.58 328.017 L 169.673 327.864 L 169.71 380.826 Z" style="fill: rgb(78, 78, 78);"/>
  <path d="M 295.478 92.15 L 198.92 92.15 L 198.92 185.428 L 295.371 185.428 L 295.371 92.15 L 295.478 92.15 Z M 275.84 164.428 L 218.642 164.322 L 218.71 111.619 L 275.803 111.466 L 275.84 164.428 Z" style="fill: rgb(78, 78, 78);"/>
  <path d="M 296.386 200.932 L 199.828 200.932 L 199.828 294.21 L 296.279 294.21 L 296.279 200.932 L 296.386 200.932 Z M 276.748 273.21 L 219.55 273.104 L 219.618 220.401 L 276.711 220.248 L 276.748 273.21 Z" style="fill: rgb(78, 78, 78);"/>
  <path d="M 297.176 308.2 L 200.618 308.2 L 200.618 401.478 L 297.069 401.478 L 297.069 308.2 L 297.176 308.2 Z M 277.538 380.478 L 220.34 380.372 L 220.408 327.669 L 277.501 327.516 L 277.538 380.478 Z" style="fill: rgb(78, 78, 78);"/>
  <path d="M 404.104 91.802 L 307.546 91.802 L 307.546 185.08 L 403.997 185.08 L 403.997 91.802 L 404.104 91.802 Z M 384.466 164.08 L 327.268 163.974 L 327.336 111.271 L 384.429 111.118 L 384.466 164.08 Z" style="fill: rgb(78, 78, 78);"/>
  <path d="M 405.012 200.584 L 308.454 200.584 L 308.454 293.862 L 404.905 293.862 L 404.905 200.584 L 405.012 200.584 Z M 385.374 272.862 L 328.176 272.756 L 328.244 220.053 L 385.337 219.9 L 385.374 272.862 Z" style="fill: rgb(78, 78, 78);"/>
  <path d="M 405.802 307.852 L 309.244 307.852 L 309.244 401.13 L 405.695 401.13 L 405.695 307.852 L 405.802 307.852 Z M 386.164 380.13 L 328.966 380.024 L 329.034 327.321 L 386.127 327.168 L 386.164 380.13 Z" style="fill: rgb(78, 78, 78);"/>
  <path style="fill: rgb(216, 216, 216); stroke: rgb(0, 0, 0);" d="M 127.924 60.453 L 154.179 60.453 L 154.179 5.146 L 127.709 5.146 L 127.924 60.453 Z"/>
  <path style="fill: rgb(216, 216, 216); stroke: rgb(0, 0, 0);" d="M 237.873 60.794 L 264.128 60.794 L 264.128 5.487 L 237.658 5.487 L 237.873 60.794 Z"/>
  <path style="fill: rgb(216, 216, 216); stroke: rgb(0, 0, 0);" d="M 343.259 60.54 L 369.514 60.54 L 369.514 5.233 L 343.044 5.233 L 343.259 60.54 Z"/>
  <path style="fill: rgb(216, 216, 216); stroke: rgb(0, 0, 0);" d="M 18.98 382.045 L 45.235 382.045 L 45.235 326.738 L 18.765 326.738 L 18.98 382.045 Z" transform="matrix(0, -1, 1, 0, -322.39151, 386.39151)"/>
  <path style="fill: rgb(216, 216, 216); stroke: rgb(0, 0, 0);" d="M 19.321 273.096 L 45.576 273.096 L 45.576 217.789 L 19.106 217.789 L 19.321 273.096 Z" transform="matrix(0, -1, 1, 0, -213.101504, 277.783505)"/>
  <path style="fill: rgb(216, 216, 216); stroke: rgb(0, 0, 0);" d="M 19.067 165.71 L 45.322 165.71 L 45.322 110.403 L 18.852 110.403 L 19.067 165.71 Z" transform="matrix(0, -1, 1, 0, -105.969504, 170.143502)"/>
  <path style="fill: rgb(216, 216, 216); stroke: rgb(0, 0, 0);" d="M 452.168 382.25 L 478.423 382.25 L 478.423 326.943 L 451.953 326.943 L 452.168 382.25 Z" transform="matrix(0, -1, 1, 0, 110.591507, 819.7845)"/>
  <path style="fill: rgb(216, 216, 216); stroke: rgb(0, 0, 0);" d="M 452.509 273.301 L 478.764 273.301 L 478.764 217.994 L 452.294 217.994 L 452.509 273.301 Z" transform="matrix(0, -1, 1, 0, 219.881508, 711.176506)"/>
  <path style="fill: rgb(216, 216, 216); stroke: rgb(0, 0, 0);" d="M 452.255 165.915 L 478.51 165.915 L 478.51 110.608 L 452.04 110.608 L 452.255 165.915 Z" transform="matrix(0, -1, 1, 0, 327.013512, 603.536507)"/>
  <path style="fill: rgb(216, 216, 216); stroke: rgb(0, 0, 0);" d="M 127.87 492.87 L 154.125 492.87 L 154.125 437.563 L 127.655 437.563 L 127.87 492.87 Z"/>
  <path style="fill: rgb(216, 216, 216); stroke: rgb(0, 0, 0);" d="M 237.819 493.211 L 264.074 493.211 L 264.074 437.904 L 237.604 437.904 L 237.819 493.211 Z"/>
  <path style="fill: rgb(216, 216, 216); stroke: rgb(0, 0, 0);" d="M 343.205 492.957 L 369.46 492.957 L 369.46 437.65 L 342.99 437.65 L 343.205 492.957 Z"/>
</svg>