<?xml version="1.0" encoding="utf-8"?>
<svg viewBox="0 0 500 500" xmlns="http://www.w3.org/2000/svg" xmlns:bx="https://boxy-svg.com">
  <defs>
    <style bx:fonts="Barlow">@import url(https://fonts.googleapis.com/css2?family=Barlow%3Aital%2Cwght%400%2C100%3B0%2C200%3B0%2C300%3B0%2C400%3B0%2C500%3B0%2C600%3B0%2C700%3B0%2C800%3B0%2C900%3B1%2C100%3B1%2C200%3B1%2C300%3B1%2C400%3B1%2C500%3B1%2C600%3B1%2C700%3B1%2C800%3B1%2C900&amp;display=swap);</style>
  </defs>
  <rect style="stroke: rgb(0, 0, 0); fill: rgb(179, 179, 179);" x="7.221" y="5.117" width="485.734" height="486.59" rx="100" ry="100"/>
  <text style="fill: rgb(255, 255, 255); font-family: Barlow; font-size: 157.339px; font-weight: 900; letter-spacing: 6.9px; paint-order: fill; stroke-width: 2.88557px; white-space: pre; mix-blend-mode: hard-light;" transform="matrix(1.729923, 0, 0, 0.915221, -200.542618, -129.166107)" x="133.03500366210938" y="310.9570007324219"> </text>
  <path style="stroke: rgb(0, 0, 0); opacity: 0.66; fill: rgb(110, 110, 110);" d="M -2.862 492.289 C 53.941 302.916 191.364 463.216 499.534 492.289"/>
  <path fill-rule="evenodd" clip-rule="evenodd" d="M 244.213 179.984 C 207.228 179.984 177.241 207.237 177.241 240.855 C 177.241 274.472 207.228 301.725 244.213 301.725 C 281.203 301.725 311.187 274.472 311.187 240.855 C 311.187 207.237 281.203 179.984 244.213 179.984 Z M 210.727 240.855 C 210.727 224.045 225.72 210.42 244.213 210.42 C 262.708 210.42 277.701 224.045 277.701 240.855 C 277.701 257.664 262.708 271.29 244.213 271.29 C 225.72 271.29 210.727 257.664 210.727 240.855 Z" style="fill: rgb(24, 24, 24);"/>
  <path fill-rule="evenodd" clip-rule="evenodd" d="M 232.268 65.851 C 208.812 65.851 188.056 80.574 183.461 101.706 L 182.138 107.796 C 178.993 122.254 161.531 131.753 144.506 126.541 L 137.862 124.507 C 115.663 117.713 90.821 125.653 78.76 144.06 L 66.814 162.291 C 54.638 180.873 59.269 204.407 77.435 218.244 L 82.758 222.299 C 95.687 232.149 95.687 249.56 82.758 259.412 L 77.435 263.465 C 59.269 277.303 54.638 300.836 66.814 319.418 L 78.76 337.649 C 90.821 356.056 115.665 363.996 137.863 357.202 L 144.506 355.166 C 161.531 349.954 178.993 359.453 182.138 373.914 L 183.461 380.003 C 188.056 401.136 208.814 415.858 232.268 415.858 L 256.159 415.858 C 279.617 415.858 300.373 401.136 304.968 380.001 L 306.291 373.915 C 309.434 359.455 326.896 349.954 343.923 355.166 L 350.565 357.202 C 372.764 363.996 397.607 356.056 409.671 337.649 L 421.615 319.42 C 433.791 300.836 429.157 277.303 410.992 263.465 L 405.671 259.412 C 392.738 249.562 392.738 232.147 405.671 222.299 L 410.992 218.244 C 429.157 204.407 433.791 180.873 421.615 162.291 L 409.671 144.06 C 397.607 125.653 372.766 117.713 350.567 124.507 L 343.921 126.541 C 326.896 131.753 309.434 122.254 306.291 107.794 L 304.968 101.708 C 300.373 80.575 279.617 65.851 256.159 65.851 L 232.268 65.851 Z M 216.314 107.605 C 217.672 101.361 224.09 96.288 232.268 96.288 L 256.159 96.288 C 264.339 96.288 270.757 101.361 272.115 107.605 L 273.438 113.693 C 280.697 147.086 319.403 166.162 354.608 155.386 L 361.254 153.35 C 368.94 150.999 377.144 153.901 380.899 159.632 L 392.843 177.863 C 396.485 183.422 395.248 190.525 389.483 194.919 L 384.162 198.973 C 355.261 220.985 355.261 260.724 384.162 282.738 L 389.483 286.79 C 395.248 291.184 396.485 298.287 392.843 303.846 L 380.899 322.075 C 377.144 327.809 368.94 330.71 361.254 328.357 L 354.61 326.323 C 319.403 315.546 280.697 334.623 273.438 368.016 L 272.115 374.104 C 270.757 380.349 264.339 385.423 256.159 385.423 L 232.268 385.423 C 224.09 385.423 217.672 380.35 216.314 374.104 L 214.989 368.013 C 207.73 334.621 169.022 315.546 133.817 326.325 L 127.174 328.357 C 119.488 330.71 111.287 327.809 107.529 322.075 L 95.585 303.846 C 91.944 298.287 93.179 291.184 98.945 286.79 L 104.267 282.737 C 133.166 260.722 133.166 220.987 104.267 198.973 L 98.945 194.919 C 93.179 190.527 91.944 183.422 95.585 177.863 L 107.531 159.634 C 111.287 153.901 119.488 150.999 127.174 153.352 L 133.819 155.386 C 169.024 166.162 207.73 147.086 214.989 113.695 L 216.314 107.605 Z" style="fill: rgb(24, 24, 24);"/>
</svg>