<?xml version="1.0" encoding="utf-8"?><!-- Uploaded to: SVG Repo, www.svgrepo.com, Generator: SVG Repo Mixer Tools -->
<svg width="800px" height="800px" viewBox="0 0 24 24" fill="none" xmlns="http://www.w3.org/2000/svg">
<path fill-rule="evenodd" clip-rule="evenodd" d="M14.4528 1.10836C14.8686 1.31952 15.0833 1.79008 14.9702 2.24253L13.2808 9H20C20.388 9 20.741 9.22445 20.9056 9.57584C21.0702 9.92723 21.0166 10.3421 20.7682 10.6402L10.7682 22.6402C10.4697 22.9985 9.96309 23.1028 9.54725 22.8916C9.13142 22.6805 8.91676 22.2099 9.02987 21.7575L10.7192 15H4.00001C3.61199 15 3.259 14.7755 3.09442 14.4242C2.92984 14.0728 2.98339 13.6579 3.23179 13.3598L13.2318 1.35981C13.5304 1.00153 14.0369 0.897207 14.4528 1.10836ZM6.13505 13H12C12.3079 13 12.5987 13.1419 12.7882 13.3846C12.9777 13.6273 13.0448 13.9438 12.9702 14.2425L12.0304 18.0014L17.865 11H12C11.6921 11 11.4013 10.8581 11.2118 10.6154C11.0223 10.3727 10.9552 10.0562 11.0299 9.75746L11.9696 5.99854L6.13505 13Z" fill="#000000"/>
</svg>