<?xml version="1.0" encoding="utf-8"?><!-- Uploaded to: SVG Repo, www.svgrepo.com, Generator: SVG Repo Mixer Tools -->
<svg width="800px" height="800px" viewBox="0 0 24 24" fill="none" xmlns="http://www.w3.org/2000/svg">
<path fill-rule="evenodd" clip-rule="evenodd" d="M16.6472 4.2755C18.3543 3.89891 19.8891 3.97968 20.8292 4.10203C20.8592 4.10592 20.8911 4.11927 20.9256 4.16303C20.9637 4.21127 21 4.29459 21 4.40561V17.5662C21 17.8531 20.7538 18.0756 20.4978 18.0671C19.2792 18.027 17.4886 18.0635 15.7992 18.4717C14.6384 18.7522 13.7101 19.2206 13 19.7021V6.46564C13 6.22541 13.0548 6.10361 13.0945 6.05233C13.2183 5.89268 13.5973 5.55172 14.2498 5.18356C14.8798 4.82813 15.7 4.48446 16.6472 4.2755ZM21.0873 2.11876C19.9976 1.97693 18.2169 1.88113 16.2164 2.32246C15.0613 2.57728 14.0561 2.99648 13.2671 3.44169C12.5005 3.87417 11.8669 4.37162 11.514 4.82683C11.1078 5.35069 11 5.96564 11 6.46564V22C11 22.4411 11.289 22.83 11.7112 22.9574C12.1314 23.0841 12.5849 22.922 12.8297 22.5583L12.8315 22.5555L12.8304 22.5572L12.8297 22.5583C12.8297 22.5583 12.831 22.5564 12.8322 22.5546C12.8365 22.5485 12.8455 22.536 12.8591 22.5178C12.8864 22.4814 12.9324 22.4224 12.9974 22.3467C13.1277 22.195 13.3329 21.9779 13.6163 21.7398C14.1824 21.2641 15.0549 20.7091 16.269 20.4158C17.7048 20.0688 19.2899 20.0284 20.4319 20.066C21.8117 20.1115 23 18.9895 23 17.5662V4.40561C23 3.34931 22.2946 2.27587 21.0873 2.11876Z" fill="#000000"/>
<path fill-rule="evenodd" clip-rule="evenodd" d="M7.35275 4.2755C5.64572 3.89891 4.11089 3.97968 3.17076 4.10203C3.14084 4.10592 3.10885 4.11927 3.07437 4.16303C3.03635 4.21127 3 4.29459 3 4.40561V17.5662C3 17.8531 3.24619 18.0756 3.50221 18.0671C4.72076 18.027 6.51143 18.0635 8.20077 18.4717C9.36161 18.7522 10.2899 19.2206 11 19.7021V6.46564C11 6.22541 10.9452 6.10361 10.9055 6.05233C10.7817 5.89268 10.4027 5.55172 9.75015 5.18356C9.12019 4.82813 8.29995 4.48446 7.35275 4.2755ZM2.91265 2.11876C4.00241 1.97693 5.78311 1.88113 7.78361 2.32246C8.9387 2.57728 9.94388 2.99648 10.7329 3.44169C11.4995 3.87417 12.1331 4.37162 12.486 4.82683C12.8922 5.35069 13 5.96564 13 6.46564V22C13 22.4411 12.711 22.83 12.2888 22.9574C11.8686 23.0841 11.4151 22.922 11.1703 22.5583L11.1685 22.5555L11.1696 22.5572L11.1703 22.5583C11.1703 22.5583 11.169 22.5564 11.1678 22.5546C11.1635 22.5485 11.1545 22.536 11.1409 22.5178C11.1136 22.4814 11.0676 22.4224 11.0026 22.3467C10.8723 22.195 10.6671 21.9779 10.3837 21.7398C9.81759 21.2641 8.94511 20.7091 7.73105 20.4158C6.2952 20.0688 4.71011 20.0284 3.56807 20.066C2.18834 20.1115 1 18.9895 1 17.5662V4.40561C1 3.34931 1.70543 2.27587 2.91265 2.11876Z" fill="#000000"/>
</svg>