<?xml version="1.0" encoding="utf-8"?>
<svg viewBox="0 0 500 500" xmlns="http://www.w3.org/2000/svg" xmlns:bx="https://boxy-svg.com">
  <path d="M 437.591 60.409 L 364.106 60.805 L 344.317 60.805 L 262.28 60.805 L 242.491 60.805 L 149.059 60.805 L 129.269 60.805 L 60.006 60.805 L 60.006 130.08 L 60.006 149.873 L 60.006 235.756 L 60.006 255.549 L 60.006 348.99 L 60.006 368.783 L 60.006 438.058 L 129.666 438.058 L 149.455 438.058 L 242.492 438.058 L 262.281 438.058 L 345.143 438.058 L 364.933 438.058 L 437.197 438.058 L 437.197 368.783 L 437.593 348.99 L 437.593 255.944 L 437.593 236.152 L 437.593 149.873 L 437.593 130.08 L 437.591 60.409" style="fill: rgb(78, 78, 78);"/>
  <path d="M 420 420 L 78 420 L 78 78 L 420 78 L 420 420 Z" style="fill: rgb(236, 236, 236);" bx:origin="0.494743 0.487702"/>
  <path d="M 187.558 92.502 L 91 92.502 L 91 186.375 L 187.451 186.375 L 187.451 92.502 L 187.558 92.502 Z M 167.92 165.241 L 110.722 165.134 L 110.79 112.095 L 167.883 111.942 L 167.92 165.241 Z" style="fill: rgb(78, 78, 78);"/>
  <path d="M 188.466 201.978 L 91.908 201.978 L 91.908 295.85 L 188.359 295.85 L 188.359 201.978 L 188.466 201.978 Z M 168.828 274.716 L 111.63 274.61 L 111.698 221.571 L 168.791 221.416 L 168.828 274.716 Z" style="fill: rgb(78, 78, 78);"/>
  <path d="M 189.256 309.929 L 92.698 309.929 L 92.698 403.802 L 189.149 403.802 L 189.149 309.929 L 189.256 309.929 Z M 169.618 382.668 L 112.42 382.562 L 112.488 329.523 L 169.581 329.368 L 169.618 382.668 Z" style="fill: rgb(78, 78, 78);"/>
  <path d="M 295.386 92.152 L 198.828 92.152 L 198.828 186.025 L 295.279 186.025 L 295.279 92.152 L 295.386 92.152 Z M 275.748 164.891 L 218.55 164.784 L 218.618 111.745 L 275.711 111.591 L 275.748 164.891 Z" style="fill: rgb(78, 78, 78);"/>
  <path d="M 296.294 201.628 L 199.736 201.628 L 199.736 295.5 L 296.187 295.5 L 296.187 201.628 L 296.294 201.628 Z M 276.656 274.366 L 219.458 274.26 L 219.526 221.221 L 276.619 221.066 L 276.656 274.366 Z" style="fill: rgb(78, 78, 78);"/>
  <path d="M 297.084 309.579 L 200.526 309.579 L 200.526 403.452 L 296.977 403.452 L 296.977 309.579 L 297.084 309.579 Z M 277.446 382.318 L 220.248 382.211 L 220.316 329.173 L 277.409 329.018 L 277.446 382.318 Z" style="fill: rgb(78, 78, 78);"/>
  <path d="M 404.012 91.802 L 307.454 91.802 L 307.454 185.675 L 403.905 185.675 L 403.905 91.802 L 404.012 91.802 Z M 384.374 164.541 L 327.176 164.434 L 327.244 111.395 L 384.337 111.241 L 384.374 164.541 Z" style="fill: rgb(78, 78, 78);"/>
  <path d="M 404.92 201.277 L 308.362 201.277 L 308.362 295.15 L 404.813 295.15 L 404.813 201.277 L 404.92 201.277 Z M 385.282 274.016 L 328.084 273.91 L 328.152 220.871 L 385.245 220.716 L 385.282 274.016 Z" style="fill: rgb(78, 78, 78);"/>
  <path d="M 405.71 309.229 L 309.152 309.229 L 309.152 403.102 L 405.603 403.102 L 405.603 309.229 L 405.71 309.229 Z M 386.072 381.968 L 328.874 381.861 L 328.942 328.822 L 386.035 328.668 L 386.072 381.968 Z" style="fill: rgb(78, 78, 78);"/>
  <path style="fill: rgb(216, 216, 216); stroke: rgb(0, 0, 0);" d="M 127.924 60.453 L 154.179 60.453 L 154.179 5.146 L 127.709 5.146 L 127.924 60.453 Z"/>
  <path style="fill: rgb(216, 216, 216); stroke: rgb(0, 0, 0);" d="M 237.873 60.794 L 264.128 60.794 L 264.128 5.487 L 237.658 5.487 L 237.873 60.794 Z"/>
  <path style="fill: rgb(216, 216, 216); stroke: rgb(0, 0, 0);" d="M 343.259 60.54 L 369.514 60.54 L 369.514 5.233 L 343.044 5.233 L 343.259 60.54 Z"/>
  <path style="fill: rgb(216, 216, 216); stroke: rgb(0, 0, 0);" d="M 18.98 382.045 L 45.235 382.045 L 45.235 326.738 L 18.765 326.738 L 18.98 382.045 Z" transform="matrix(0, -1, 1, 0, -322.39151, 386.39151)"/>
  <path style="fill: rgb(216, 216, 216); stroke: rgb(0, 0, 0);" d="M 19.321 273.096 L 45.576 273.096 L 45.576 217.789 L 19.106 217.789 L 19.321 273.096 Z" transform="matrix(0, -1, 1, 0, -213.101504, 277.783505)"/>
  <path style="fill: rgb(216, 216, 216); stroke: rgb(0, 0, 0);" d="M 19.067 165.71 L 45.322 165.71 L 45.322 110.403 L 18.852 110.403 L 19.067 165.71 Z" transform="matrix(0, -1, 1, 0, -105.969504, 170.143502)"/>
  <path style="fill: rgb(216, 216, 216); stroke: rgb(0, 0, 0);" d="M 452.168 382.25 L 478.423 382.25 L 478.423 326.943 L 451.953 326.943 L 452.168 382.25 Z" transform="matrix(0, -1, 1, 0, 110.591507, 819.7845)"/>
  <path style="fill: rgb(216, 216, 216); stroke: rgb(0, 0, 0);" d="M 452.509 273.301 L 478.764 273.301 L 478.764 217.994 L 452.294 217.994 L 452.509 273.301 Z" transform="matrix(0, -1, 1, 0, 219.881508, 711.176506)"/>
  <path style="fill: rgb(216, 216, 216); stroke: rgb(0, 0, 0);" d="M 452.255 165.915 L 478.51 165.915 L 478.51 110.608 L 452.04 110.608 L 452.255 165.915 Z" transform="matrix(0, -1, 1, 0, 327.013512, 603.536507)"/>
  <path style="fill: rgb(216, 216, 216); stroke: rgb(0, 0, 0);" d="M 127.87 492.87 L 154.125 492.87 L 154.125 437.563 L 127.655 437.563 L 127.87 492.87 Z"/>
  <path style="fill: rgb(216, 216, 216); stroke: rgb(0, 0, 0);" d="M 237.819 493.211 L 264.074 493.211 L 264.074 437.904 L 237.604 437.904 L 237.819 493.211 Z"/>
  <path style="fill: rgb(216, 216, 216); stroke: rgb(0, 0, 0);" d="M 343.205 492.957 L 369.46 492.957 L 369.46 437.65 L 342.99 437.65 L 343.205 492.957 Z"/>
</svg>