<?xml version="1.0" encoding="utf-8"?>
<svg viewBox="0 0 500 500" xmlns="http://www.w3.org/2000/svg">
  <path d="M 437.591 60.409 L 368.328 60.409 L 368.328 0.238 L 348.538 0.238 L 348.538 60.805 L 295.106 60.805 L 295.106 0.238 L 275.317 0.238 L 275.317 60.805 L 222.28 60.805 L 222.28 0.238 L 202.491 0.238 L 202.491 60.805 L 149.059 60.805 L 149.059 0.238 L 129.269 0.238 L 129.269 60.805 L 60.006 60.805 L 60.006 130.08 L 0.637 130.08 L 0.637 149.873 L 60.006 149.873 L 60.006 202.918 L 0.637 202.918 L 0.637 222.711 L 60.006 222.711 L 60.006 275.756 L 0.637 275.756 L 0.637 295.549 L 60.006 295.549 L 60.006 348.99 L 0.637 348.99 L 0.637 368.783 L 60.006 368.783 L 60.006 438.058 L 129.666 438.058 L 129.666 499.812 L 149.455 499.812 L 149.455 438.058 L 202.492 438.058 L 202.492 499.812 L 222.281 499.812 L 222.281 438.058 L 275.318 438.058 L 275.318 499.812 L 295.107 499.812 L 295.107 438.058 L 348.143 438.058 L 348.143 499.812 L 367.933 499.812 L 367.933 438.058 L 437.197 438.058 L 437.197 368.783 L 499.337 368.783 L 499.337 348.99 L 437.593 348.99 L 437.593 295.944 L 499.337 295.944 L 499.337 276.152 L 437.593 276.152 L 437.593 222.711 L 499.337 222.711 L 499.337 202.918 L 437.593 202.918 L 437.593 149.873 L 499.337 149.873 L 499.337 130.08 L 437.593 130.08 L 437.591 60.409 Z M 417.801 418.265 L 79.798 418.265 L 79.798 80.206 L 417.801 80.206 L 417.801 418.265 Z" style="fill: rgb(191, 191, 191);"/>
  <path d="M 406.771 315.294 L 309.739 315.294 L 309.739 408.572 L 406.191 408.572 L 406.191 315.294 L 406.771 315.294 Z M 377.72 381.039 L 339.371 381.039 L 339.371 343.951 L 377.72 343.951 L 377.72 381.039 Z" style="fill: rgb(191, 191, 191);"/>
  <path d="M 406.771 202.344 L 309.739 202.344 L 309.739 295.622 L 406.191 295.622 L 406.191 202.344 L 406.771 202.344 Z M 377.72 268.09 L 339.371 268.09 L 339.371 231.002 L 377.72 231.002 L 377.72 268.09 Z" style="fill: rgb(191, 191, 191);"/>
  <path d="M 406.771 89.394 L 309.739 89.394 L 309.739 182.672 L 406.191 182.672 L 406.191 89.394 L 406.771 89.394 Z M 377.72 155.14 L 339.371 155.14 L 339.371 118.052 L 377.72 118.052 L 377.72 155.14 Z" style="fill: rgb(191, 191, 191);"/>
  <path d="M 298.309 315.095 L 201.278 315.095 L 201.278 408.373 L 297.729 408.373 L 297.729 315.095 L 298.309 315.095 Z M 269.259 380.84 L 230.909 380.84 L 230.909 343.752 L 269.259 343.752 L 269.259 380.84 Z" style="fill: rgb(191, 191, 191);"/>
  <path d="M 298.309 202.145 L 201.278 202.145 L 201.278 295.423 L 297.729 295.423 L 297.729 202.145 L 298.309 202.145 Z M 269.259 267.891 L 230.909 267.891 L 230.909 230.802 L 269.259 230.802 L 269.259 267.891 Z" style="fill: rgb(191, 191, 191);"/>
  <path d="M 298.309 89.195 L 201.278 89.195 L 201.278 182.473 L 297.729 182.473 L 297.729 89.195 L 298.309 89.195 Z M 269.259 154.941 L 230.909 154.941 L 230.909 117.854 L 269.259 117.854 L 269.259 154.941 Z" style="fill: rgb(191, 191, 191);"/>
  <path d="M 189.124 315.398 L 92.092 315.398 L 92.092 408.676 L 188.543 408.676 L 188.543 315.398 L 189.124 315.398 Z M 160.073 381.143 L 121.724 381.143 L 121.724 344.056 L 160.073 344.056 L 160.073 381.143 Z" style="fill: rgb(191, 191, 191);"/>
  <path d="M 189.124 202.448 L 92.092 202.448 L 92.092 295.726 L 188.543 295.726 L 188.543 202.448 L 189.124 202.448 Z M 160.073 268.194 L 121.724 268.194 L 121.724 231.106 L 160.073 231.106 L 160.073 268.194 Z" style="fill: rgb(191, 191, 191);"/>
  <path d="M 189.124 89.498 L 92.092 89.498 L 92.092 182.776 L 188.543 182.776 L 188.543 89.498 L 189.124 89.498 Z M 160.073 155.244 L 121.724 155.244 L 121.724 118.156 L 160.073 118.156 L 160.073 155.244 Z" style="fill: rgb(191, 191, 191);"/>
</svg>