<?xml version="1.0" encoding="utf-8"?><!-- Uploaded to: SVG Repo, www.svgrepo.com, Generator: SVG Repo Mixer Tools -->
<svg width="800px" height="800px" viewBox="0 0 24 24" fill="none" xmlns="http://www.w3.org/2000/svg">
<path d="M7.75716 7.75736C8.14768 7.36683 8.78084 7.36683 9.17137 7.75736L11.9998 10.5858L14.8283 7.75736C15.2188 7.36684 15.852 7.36684 16.2425 7.75736C16.6331 8.14789 16.6331 8.78105 16.2425 9.17158L13.4141 12L16.2424 14.8284C16.633 15.2189 16.633 15.8521 16.2424 16.2426C15.8519 16.6332 15.2187 16.6332 14.8282 16.2426L11.9998 13.4143L9.17146 16.2426C8.78094 16.6332 8.14777 16.6332 7.75725 16.2426C7.36672 15.8521 7.36672 15.219 7.75725 14.8284L10.5856 12L7.75716 9.17157C7.36663 8.78104 7.36663 8.14788 7.75716 7.75736Z" fill="#000000"/>
<path fill-rule="evenodd" clip-rule="evenodd" d="M1 12C1 5.92487 5.92487 1 12 1C18.0751 1 23 5.92487 23 12C23 18.0751 18.0751 23 12 23C5.92487 23 1 18.0751 1 12ZM12 3C7.02944 3 3 7.02944 3 12C3 16.9706 7.02944 21 12 21C16.9706 21 21 16.9706 21 12C21 7.02944 16.9706 3 12 3Z" fill="#000000"/>
</svg>